<svg width="18" height="24" viewBox="0 0 18 24" fill="none" xmlns="http://www.w3.org/2000/svg">
<path d="M4.74999 7.08527V5.38527C4.74999 2.95767 6.64549 0.977173 8.99999 0.977173C11.3545 0.977173 13.25 2.95767 13.25 5.38527V7.08527H16.1876C16.3222 7.08537 16.4517 7.13646 16.5501 7.22825C16.6485 7.32005 16.7085 7.44572 16.718 7.57997L17.7278 22.455C17.7367 22.5955 17.6897 22.7339 17.597 22.8399C17.5043 22.9459 17.3735 23.011 17.2331 23.0211H0.802586C0.661915 23.0211 0.527006 22.9652 0.427537 22.8657C0.328067 22.7663 0.272186 22.6313 0.272186 22.4907V22.455L1.28199 7.57997C1.29103 7.44542 1.35083 7.31932 1.44929 7.22718C1.54775 7.13503 1.67753 7.0837 1.81239 7.08357L4.74999 7.08527ZM6.34459 7.08527H11.6571V5.38527C11.6571 3.82297 10.4671 2.57007 8.99999 2.57007C7.53289 2.57007 6.34459 3.82297 6.34459 5.38527V7.08527ZM1.93989 21.4299H16.0601L15.1965 8.67987H2.80519L1.93989 21.4299Z" fill="#664C47"/>
</svg>
