<svg width="24" height="22" viewBox="0 0 24 22" fill="none" xmlns="http://www.w3.org/2000/svg">
<path d="M11.9663 12.3465C15.3663 12.3465 18.0931 9.58612 18.0931 6.21978C18.0931 2.85345 15.3663 0.0593872 11.9663 0.0593872C8.56634 0.0593872 5.83961 2.81978 5.83961 6.18612C5.83961 9.55246 8.56634 12.3465 11.9663 12.3465ZM11.9663 1.67523C14.4574 1.67523 16.4772 3.69503 16.4772 6.18612C16.4772 8.67721 14.4574 10.697 11.9663 10.697C9.47525 10.697 7.45545 8.71087 7.45545 6.21978C7.45545 3.72869 9.47525 1.67523 11.9663 1.67523ZM1.32872 21.9406H22.6713C23.1089 21.9406 23.4792 21.5703 23.4792 21.1327C23.4792 16.8911 20.0119 13.4237 15.7703 13.4237H8.22971C3.98812 13.4237 0.520798 16.8911 0.520798 21.1327C0.520798 21.5703 0.891095 21.9406 1.32872 21.9406ZM8.22971 15.0396H15.7703C18.8673 15.0396 21.3921 17.3287 21.796 20.3247H2.20397C2.60793 17.3287 5.13268 15.0396 8.22971 15.0396Z" fill="#664C47"/>
</svg>
