<svg width="16" height="16" viewBox="0 0 16 16" fill="none" xmlns="http://www.w3.org/2000/svg">
<path fill-rule="evenodd" clip-rule="evenodd" d="M7.14623 4.15914C7.23998 4.0655 7.36706 4.01291 7.49956 4.01291C7.63206 4.01291 7.75914 4.0655 7.85289 4.15914L11.3329 7.63914L14.8129 4.15914C14.8587 4.11001 14.9139 4.07061 14.9752 4.04328C15.0365 4.01596 15.1027 4.00126 15.1699 4.00008C15.237 3.99889 15.3037 4.01124 15.366 4.03639C15.4282 4.06154 15.4848 4.09897 15.5323 4.14645C15.5797 4.19393 15.6172 4.25048 15.6423 4.31274C15.6675 4.375 15.6798 4.44169 15.6786 4.50882C15.6774 4.57596 15.6627 4.64216 15.6354 4.7035C15.6081 4.76483 15.5687 4.82003 15.5196 4.86581L12.0396 8.34581L15.5196 11.8258C15.5687 11.8716 15.6081 11.9268 15.6354 11.9881C15.6627 12.0494 15.6774 12.1157 15.6786 12.1828C15.6798 12.2499 15.6675 12.3166 15.6423 12.3789C15.6172 12.4411 15.5797 12.4977 15.5323 12.5452C15.4848 12.5926 15.4282 12.6301 15.366 12.6552C15.3037 12.6804 15.237 12.6927 15.1699 12.6915C15.1027 12.6903 15.0365 12.6757 14.9752 12.6483C14.9139 12.621 14.8587 12.5816 14.8129 12.5325L11.3329 9.05247L7.85289 12.5325C7.75811 12.6208 7.63275 12.6689 7.50321 12.6666C7.37368 12.6643 7.25009 12.6118 7.15848 12.5202C7.06687 12.4286 7.0144 12.305 7.01211 12.1755C7.00982 12.046 7.05791 11.9206 7.14623 11.8258L10.6262 8.34581L7.14623 4.86581C7.05259 4.77206 7 4.64497 7 4.51247C7 4.37997 7.05259 4.25289 7.14623 4.15914Z" fill="white"/>
</svg>
