<?xml version="1.0" encoding="UTF-8"?>
<svg viewBox="0 0 16 16" version="1.1" xmlns="http://www.w3.org/2000/svg" xmlns:xlink="http://www.w3.org/1999/xlink">
    <g id="Master" stroke="none" stroke-width="1" fill="none" fill-rule="evenodd">
        <g id="Icons" transform="translate(-40.000000, -79.000000)" fill="currentColor">
            <g id="eye-off-outline" transform="translate(40.000000, 79.000000)">
                <path d="M2.47398116,3.99464566 L2.53252547,4.02549094 L13.8658588,11.3588243 C14.0358755,11.4688351 14.0845198,11.6958421 13.9745091,11.8658588 C13.8767217,12.0169847 13.6864928,12.0722116 13.5260188,12.0053543 L13.4674745,11.9745091 L2.1341412,4.64117572 C1.96412454,4.53116495 1.91548016,4.30415786 2.02549094,4.1341412 C2.1232783,3.98301528 2.31350719,3.92778845 2.47398116,3.99464566 Z M3.46302885,6.35365053 L4.1083929,6.7708723 C3.81029658,7.0585608 3.52305647,7.38077325 3.2494004,7.73654755 L3.04674798,8.0096561 L3.08366782,8.06547524 C4.27326632,9.84797951 6.06094208,10.962963 7.98004454,10.962963 C8.65722341,10.962963 9.32390587,10.8201119 9.95521088,10.5562937 L10.69564,11.0338727 C9.84843225,11.4648639 8.92701525,11.7037037 7.98004454,11.7037037 C5.75860617,11.7037037 3.72666166,10.4226157 2.40821861,8.41164019 C2.24142826,8.1600981 2.24649075,7.83544344 2.42215728,7.58739593 C2.74871545,7.13128497 3.09707817,6.71935421 3.46302885,6.35365053 Z M5.71548132,7.81273581 L6.50413753,8.32383034 C6.65572725,8.9862843 7.26257495,9.48148148 7.98812175,9.48148148 C8.07995333,9.48148148 8.1698834,9.47354859 8.25722954,9.45834774 L9.04753326,9.96841802 C8.73098269,10.1305066 8.37054437,10.2222222 7.98812175,10.2222222 C6.72856811,10.2222222 5.70749814,9.22729944 5.70749814,8 C5.70749814,7.93693045 5.7101946,7.87447455 5.71548132,7.81273581 Z M7.98004454,4.2962963 C9.10605419,4.2962963 10.2063142,4.63943012 11.2089405,5.27021664 C12.1313806,5.85055521 12.9459997,6.66069361 13.5686244,7.59770297 C13.7306028,7.84293225 13.7306028,8.15776219 13.569353,8.40188399 C13.2688682,8.86037696 12.9288642,9.28189795 12.5567195,9.65936669 L11.9125299,9.24126945 C12.2874179,8.87549361 12.6294637,8.45971211 12.9293712,8.00210112 C12.9300086,8.00103291 12.9300086,7.99966153 12.9300086,7.99944169 C11.736763,6.20380333 9.88220431,5.03703704 7.98004454,5.03703704 C7.33011363,5.03703704 6.68048528,5.17600946 6.04999663,5.44731057 L5.31648269,4.97253171 C6.16987895,4.52781301 7.07030912,4.2962963 7.98004454,4.2962963 Z M7.98812175,5.77777778 C9.24767539,5.77777778 10.2687454,6.77270056 10.2687454,8 C10.2687454,8.05834477 10.2664378,8.11616438 10.2619067,8.1733769 L9.4680009,7.65873003 C9.30983274,7.00504358 8.70728744,6.51851852 7.98812175,6.51851852 C7.90245898,6.51851852 7.81845084,6.52542142 7.73665123,6.53868749 L6.94186885,6.02489746 C7.25523458,5.8669741 7.61098796,5.77777778 7.98812175,5.77777778 Z" id="Combined-Shape"></path>
            </g>
        </g>
    </g>
</svg>