<svg  viewBox="0 0 16 16" fill="none" xmlns="http://www.w3.org/2000/svg">
<path d="M7.98049 4.29626C5.93884 4.29626 3.94406 5.4623 2.4226 7.58736C2.24693 7.83541 2.24187 8.16007 2.40866 8.41161C3.7271 10.4226 5.75905 11.7037 7.98049 11.7037C10.1878 11.7037 12.2564 10.406 13.5698 8.40185C13.731 8.15773 13.731 7.8429 13.5691 7.59767C12.9464 6.66066 12.1318 5.85052 11.2094 5.27018C10.2068 4.6394 9.1065 4.29626 7.98049 4.29626ZM7.98049 5.03701C9.88265 5.03701 11.7372 6.20377 12.9305 7.99941C12.9305 7.99963 12.9305 8.001 12.9298 8.00207C11.746 9.80837 9.90566 10.9629 7.98049 10.9629C6.06138 10.9629 4.27371 9.84795 3.08411 8.06544L3.04719 8.00962C4.43378 6.07295 6.20601 5.03701 7.98049 5.03701Z" fill="currentColor"/>
<path d="M7.98765 5.77771C6.7281 5.77771 5.70703 6.77263 5.70703 7.99993C5.70703 9.22723 6.7281 10.2222 7.98765 10.2222C9.24721 10.2222 10.2683 9.22723 10.2683 7.99993C10.2683 6.77263 9.24721 5.77771 7.98765 5.77771ZM7.98765 6.51845C8.82736 6.51845 9.50807 7.18173 9.50807 7.99993C9.50807 8.81813 8.82736 9.48141 7.98765 9.48141C7.14795 9.48141 6.46724 8.81813 6.46724 7.99993C6.46724 7.18173 7.14795 6.51845 7.98765 6.51845Z" fill="currentColor"/>
</svg>
